# xmcd CD database file
#
# Track frame offsets:
#	182
#	13192
#	24887
#	37682
#	49335
#	64642
#	77795
#	89847
#	96807
#	110390
#	124110
#	136907
#	149740
#	164510
#	177557
#	189425
#	200080
#	211070
#	223877
#	235797
#	251087
#	262592
#	274532
#	286755
#
# Disc length: 4022 seconds
#
# Revision: 0
# Processed by: cddbd v1.5.1PL0 Copyright (c) Steve Scherf et al.
# Submitted via: CDex 1.51
#
DISCID=5d0fb418
DTITLE=SONNY BOY WILLIAMSON - The complete chess recordings cd 1
DYEAR=1991
DGENRE=Blues
TTITLE0=Work with me
TTITLE1=Don't start me to talkin'
TTITLE2=All my love in vain
TTITLE3=Good evening everybody
TTITLE4=You killing me
TTITLE5=Let me explain
TTITLE6=I know what love is all about
TTITLE7=I wonder why
TTITLE8=Your imagination
TTITLE9=Don't love your eye
TTITLE10=Keep it to yourself
TTITLE11=Please forgive
TTITLE12=The key
TTITLE13=Have you ever been in love
TTITLE14=Hurts me so much
TTITLE15=Fattening frogs for snakes
TTITLE16=I don't know
TTITLE17=Like wolf
TTITLE18=This is my apartment
TTITLE19=Cross my heart
TTITLE20=Born blind
TTITLE21=Ninety nine
TTITLE22=Dissatisfied
TTITLE23=Little village
EXTD=YEAR: 1991
EXTT0=
EXTT1=
EXTT2=
EXTT3=
EXTT4=
EXTT5=
EXTT6=
EXTT7=
EXTT8=
EXTT9=
EXTT10=
EXTT11=
EXTT12=
EXTT13=
EXTT14=
EXTT15=
EXTT16=
EXTT17=
EXTT18=
EXTT19=
EXTT20=
EXTT21=
EXTT22=
EXTT23=
PLAYORDER=
